<svg width="285" height="167" viewBox="0 0 285 167" fill="none" xmlns="http://www.w3.org/2000/svg">
<path d="M282.082 17.5108L267.808 3.23783C265.906 1.33183 263.715 0.381836 261.238 0.381836C258.767 0.381836 256.577 1.33183 254.675 3.23783L142.466 115.441L30.262 3.24084C28.359 1.33484 26.169 0.384834 23.695 0.384834C21.22 0.384834 19.03 1.33484 17.128 3.24084L2.856 17.5148C0.95 19.4168 0 21.6068 0 24.0818C0 26.5548 0.953 28.7448 2.856 30.6468L135.899 163.693C137.801 165.596 139.992 166.547 142.466 166.547C144.94 166.547 147.127 165.596 149.028 163.693L282.082 30.6468C283.984 28.7438 284.929 26.5538 284.929 24.0818C284.929 21.6068 283.984 19.4168 282.082 17.5108Z" fill="#F8F8F8"/>
</svg>
